# XSI Wavefront OBJ Export v3.0
# File Created: Mon May 11 02:32:54 2020
# XSI Version: 13.2.163.0
mtllib triangle1.mtl

o torus5
# Hierarchy (from self to top father)
g torus5

#begin 9 vertices
v -0.768000 0.000000 -0.000000
v -0.651000 0.067550 -0.000000
v -0.651000 -0.067550 -0.000000
v 0.384000 0.000000 0.665108
v 0.325500 0.067550 0.563783
v 0.325500 -0.067550 0.563783
v 0.384000 0.000000 -0.665108
v 0.325500 0.067550 -0.563783
v 0.325500 -0.067550 -0.563783
#end 9 vertices

#begin 36 normals
vn -0.377964 0.654654 0.654654
vn -0.377964 0.654654 0.654654
vn -0.377964 0.654654 0.654654
vn -0.377964 0.654654 0.654654
vn 0.500000 0.000000 -0.866025
vn 0.500000 0.000000 -0.866025
vn 0.500000 0.000000 -0.866025
vn 0.500000 0.000000 -0.866025
vn -0.377964 -0.654654 0.654654
vn -0.377964 -0.654654 0.654654
vn -0.377964 -0.654654 0.654654
vn -0.377964 -0.654654 0.654654
vn 0.755929 0.654654 0.000000
vn 0.755929 0.654654 0.000000
vn 0.755929 0.654654 0.000000
vn 0.755929 0.654654 0.000000
vn -1.000000 0.000000 -0.000000
vn -1.000000 0.000000 -0.000000
vn -1.000000 0.000000 -0.000000
vn -1.000000 0.000000 -0.000000
vn 0.755929 -0.654654 0.000000
vn 0.755929 -0.654654 0.000000
vn 0.755929 -0.654654 0.000000
vn 0.755929 -0.654654 0.000000
vn -0.377964 0.654654 -0.654654
vn -0.377964 0.654654 -0.654654
vn -0.377964 0.654654 -0.654654
vn -0.377964 0.654654 -0.654654
vn 0.500000 0.000000 0.866025
vn 0.500000 0.000000 0.866025
vn 0.500000 0.000000 0.866025
vn 0.500000 0.000000 0.866025
vn -0.377964 -0.654654 -0.654654
vn -0.377964 -0.654654 -0.654654
vn -0.377964 -0.654654 -0.654654
vn -0.377964 -0.654654 -0.654654
#end 36 vertex normals

#begin texture vertices
vt 1.000000 0.000000 0.000000
vt 1.000000 1.000000 0.000000
vt 0.000000 1.000000 0.000000
vt 0.000000 0.000000 0.000000
vt 0.000000 0.000000 0.000000
vt 1.000000 0.000000 0.000000
vt 1.000000 1.000000 0.000000
vt 0.000000 1.000000 0.000000
vt 0.000000 0.000000 0.000000
vt 1.000000 0.000000 0.000000
vt 1.000000 1.000000 0.000000
vt 0.000000 1.000000 0.000000
vt 1.000000 1.000000 0.000000
vt 0.000000 1.000000 0.000000
vt 0.000000 0.000000 0.000000
vt 1.000000 0.000000 0.000000
vt 0.000000 1.000000 0.000000
vt 0.000000 0.000000 0.000000
vt 1.000000 0.000000 0.000000
vt 1.000000 1.000000 0.000000
vt 0.000000 1.000000 0.000000
vt 0.000000 0.000000 0.000000
vt 1.000000 0.000000 0.000000
vt 1.000000 1.000000 0.000000
vt 1.000000 1.000000 0.000000
vt 0.000000 1.000000 0.000000
vt 0.000000 0.000000 0.000000
vt 1.000000 0.000000 0.000000
vt 0.000000 1.000000 0.000000
vt 0.000000 0.000000 0.000000
vt 1.000000 0.000000 0.000000
vt 1.000000 1.000000 0.000000
vt 0.000000 1.000000 0.000000
vt 0.000000 0.000000 0.000000
vt 1.000000 0.000000 0.000000
vt 1.000000 1.000000 0.000000
#end 36 texture vertices

#begin 9 faces
usemtl scene_material
f 1/2/1 4/14/2 5/18/3 2/6/4 
usemtl scene_material
f 2/7/5 5/17/6 6/22/7 3/10/8 
usemtl scene_material
f 3/11/9 6/21/10 4/15/11 1/1/12 
usemtl scene_material
f 4/13/13 7/26/14 8/30/15 5/19/16 
usemtl scene_material
f 5/20/17 8/29/18 9/34/19 6/23/20 
usemtl scene_material
f 6/24/21 9/33/22 7/27/23 4/16/24 
usemtl scene_material
f 7/25/25 1/3/26 2/5/27 8/31/28 
usemtl scene_material
f 8/32/29 2/8/30 3/9/31 9/35/32 
usemtl scene_material
f 9/36/33 3/12/34 1/4/35 7/28/36 
#end 9 faces
